<svg width="32" height="32" viewBox="0 0 32 32" fill="none" xmlns="http://www.w3.org/2000/svg">
  <!-- 背景圆 -->
  <circle cx="16" cy="16" r="16" fill="url(#gradient)"/>
  
  <!-- 书本图标 -->
  <path d="M8 6H15C15.5304 6 16.0391 6.21071 16.4142 6.58579C16.7893 6.96086 17 7.46957 17 8V24C17 23.4696 16.7893 22.9609 16.4142 22.5858C16.0391 22.2107 15.5304 22 15 22H8V6Z" fill="white" fill-opacity="0.9"/>
  <path d="M24 6H17C16.4696 6 15.9609 6.21071 15.5858 6.58579C15.2107 6.96086 15 7.46957 15 8V24C15 23.4696 15.2107 22.9609 15.5858 22.5858C15.9609 22.2107 16.4696 22 17 22H24V6Z" fill="white" fill-opacity="0.9"/>
  
  <!-- 渐变定义 -->
  <defs>
    <linearGradient id="gradient" x1="0" y1="0" x2="32" y2="32" gradientUnits="userSpaceOnUse">
      <stop offset="0%" stop-color="#3B82F6"/>
      <stop offset="100%" stop-color="#8B5CF6"/>
    </linearGradient>
  </defs>
</svg>
